<svg version="1.1" id="Layer_1" xmlns="http://www.w3.org/2000/svg" xmlns:xlink="http://www.w3.org/1999/xlink" x="0px" y="0px"
	 width="100%" viewBox="0 0 600 387" enable-background="new 0 0 600 387" xml:space="preserve">
<path fill="#FFFFFF" opacity="1.000000" stroke="none" 
	d="
M143.000000,0.999998 
	C248.021439,1.000000 353.042877,1.000000 458.390381,1.343765 
	C456.915924,2.424839 455.172455,3.391079 453.304199,3.856346 
	C447.801788,5.226645 445.467560,8.593990 445.951752,14.228959 
	C446.431305,19.810005 445.612946,25.737062 447.229279,30.931955 
	C449.765381,39.083023 445.054871,43.094154 439.577698,45.844181 
	C431.539459,49.880093 423.006348,53.182697 414.367401,55.719025 
	C394.322327,61.604080 373.805908,65.302094 352.956604,66.969620 
	C347.371674,67.416306 341.774994,67.732491 336.179291,68.024010 
	C323.160217,68.702248 310.139343,69.808640 297.117493,69.832893 
	C285.597656,69.854347 274.065430,68.785561 262.557220,67.944450 
	C251.097916,67.106911 239.538742,66.678444 228.245209,64.762711 
	C212.734131,62.131550 197.342331,58.626827 182.072754,54.804100 
	C172.387329,52.379364 162.644577,49.257278 156.289490,40.622051 
	C154.980499,38.843410 154.108261,36.214203 154.203339,34.027863 
	C154.523590,26.664127 155.673279,19.329447 155.822540,11.969796 
	C155.864502,9.900426 154.011642,7.197770 152.227951,5.824957 
	C149.518875,3.739930 146.111023,2.562785 143.000000,0.999998 
z"/>
<path fill="#FFFFFF" opacity="1.000000" stroke="none" 
	d="
M510.000000,388.000000 
	C370.976685,388.000000 231.953354,388.000000 92.605530,387.657288 
	C97.357399,385.155670 102.733719,383.510223 107.458694,380.749878 
	C129.016068,368.156158 151.526245,357.656799 174.959625,349.104858 
	C176.221176,348.644470 177.963577,348.156097 179.009155,348.660706 
	C188.066101,353.031799 197.679291,353.266083 207.428345,353.042206 
	C220.760437,352.735992 232.538910,347.769318 241.998306,339.003601 
	C246.961288,334.404572 252.028839,332.519409 258.011597,332.106537 
	C271.519135,331.174408 285.058319,330.137634 298.582733,330.162781 
	C313.609253,330.190735 328.640015,331.245331 343.651489,332.144196 
	C345.680176,332.265686 347.981415,333.692108 349.524841,335.172699 
	C369.379608,354.218994 392.314209,357.346588 417.672729,348.799774 
	C419.652222,348.132629 422.206543,347.516663 423.992249,348.195648 
	C436.120758,352.807587 448.371552,357.228729 460.090546,362.755402 
	C476.946564,370.704773 493.383942,379.541840 510.000000,388.000000 
z"/>
<path fill="#5F5F5F" opacity="1.000000" stroke="none" 
	d="
M510.464661,388.000000 
	C493.383942,379.541840 476.946564,370.704773 460.090546,362.755402 
	C448.371552,357.228729 436.120758,352.807587 423.992249,348.195648 
	C422.206543,347.516663 419.652222,348.132629 417.672729,348.799774 
	C392.314209,357.346588 369.379608,354.218994 349.524841,335.172699 
	C347.981415,333.692108 345.680176,332.265686 343.651489,332.144196 
	C328.640015,331.245331 313.609253,330.190735 298.582733,330.162781 
	C285.058319,330.137634 271.519135,331.174408 258.011597,332.106537 
	C252.028839,332.519409 246.961288,334.404572 241.998306,339.003601 
	C232.538910,347.769318 220.760437,352.735992 207.428345,353.042206 
	C197.679291,353.266083 188.066101,353.031799 179.009155,348.660706 
	C177.963577,348.156097 176.221176,348.644470 174.959625,349.104858 
	C151.526245,357.656799 129.016068,368.156158 107.458694,380.749878 
	C102.733719,383.510223 97.357399,385.155670 92.140518,387.657288 
	C87.643097,388.000000 83.286201,388.000000 78.326065,387.656311 
	C76.502945,386.868622 75.292976,386.394836 74.061691,385.985077 
	C49.090172,377.675995 31.074356,361.329956 19.029963,338.176025 
	C10.070123,320.951813 5.141406,302.523224 2.950780,283.292145 
	C2.481698,279.174133 1.659519,275.096313 1.000000,271.000000 
	C1.000000,249.312439 1.000000,227.624878 1.381190,205.270660 
	C2.168877,200.187195 2.503726,195.762405 2.995740,191.355133 
	C4.302061,179.653687 5.134511,167.865326 7.154211,156.285721 
	C9.970268,140.140381 13.360250,124.073776 17.160688,108.129852 
	C19.281353,99.233070 20.576992,89.928627 26.257437,82.139381 
	C27.751884,80.090141 27.989740,77.160545 29.010654,74.721451 
	C30.521236,71.112480 31.227058,66.122437 33.990082,64.248665 
	C54.382690,50.419296 75.843681,38.735035 100.700912,34.812416 
	C102.305069,34.559269 104.079948,32.553009 104.926491,30.921719 
	C106.710144,27.484591 108.107811,23.814754 109.346428,20.133598 
	C112.390686,11.086142 116.630913,3.244146 127.000000,1.000000 
	C132.022095,1.000000 137.044189,1.000000 142.533142,0.999998 
	C146.111023,2.562785 149.518875,3.739930 152.227951,5.824957 
	C154.011642,7.197770 155.864502,9.900426 155.822540,11.969796 
	C155.673279,19.329447 154.523590,26.664127 154.203339,34.027863 
	C154.108261,36.214203 154.980499,38.843410 156.289490,40.622051 
	C162.644577,49.257278 172.387329,52.379364 182.072754,54.804100 
	C197.342331,58.626827 212.734131,62.131550 228.245209,64.762711 
	C239.538742,66.678444 251.097916,67.106911 262.557220,67.944450 
	C274.065430,68.785561 285.597656,69.854347 297.117493,69.832893 
	C310.139343,69.808640 323.160217,68.702248 336.179291,68.024010 
	C341.774994,67.732491 347.371674,67.416306 352.956604,66.969620 
	C373.805908,65.302094 394.322327,61.604080 414.367401,55.719025 
	C423.006348,53.182697 431.539459,49.880093 439.577698,45.844181 
	C445.054871,43.094154 449.765381,39.083023 447.229279,30.931955 
	C445.612946,25.737062 446.431305,19.810005 445.951752,14.228959 
	C445.467560,8.593990 447.801788,5.226645 453.304199,3.856346 
	C455.172455,3.391079 456.915924,2.424839 458.858215,1.343765 
	C464.354919,1.000000 469.709869,1.000000 475.673950,1.343563 
	C482.328735,3.064810 486.931305,5.910594 489.159607,12.247448 
	C491.362549,18.512018 494.103912,24.615406 497.040619,30.576939 
	C497.940735,32.404205 500.041473,34.176655 501.981293,34.844112 
	C506.092896,36.258850 510.494324,36.802715 514.716919,37.928646 
	C532.190430,42.587910 547.789124,51.259411 563.118347,60.548737 
	C569.572815,64.460091 573.937256,69.277237 573.118103,77.457626 
	C572.997559,78.661179 574.165100,80.025208 574.823059,81.269295 
	C576.864380,85.129326 579.798462,88.743271 580.879395,92.849342 
	C589.471741,125.489151 596.625305,158.414185 599.071106,192.196777 
	C599.405884,196.820175 600.342163,201.400009 601.000000,206.000000 
	C601.000000,227.354233 601.000000,248.708450 600.620117,270.727173 
	C599.834534,275.306274 599.429993,279.220947 599.022888,283.135376 
	C596.897766,303.567657 591.340881,323.012512 581.429382,341.021545 
	C572.009277,358.137787 559.025452,371.859711 541.136536,380.393982 
	C535.498108,383.083954 529.716248,385.473175 524.000000,388.000000 
	C519.643066,388.000000 515.286194,388.000000 510.464661,388.000000 
M596.200378,196.303085 
	C596.123962,195.866302 596.047607,195.429504 596.040588,194.134842 
	C592.808411,160.094742 586.514893,126.617950 577.335876,93.691971 
	C576.427917,90.434944 574.490601,87.464897 572.739868,83.742508 
	C572.017456,85.583946 571.654663,86.510078 571.290771,87.435776 
	C568.984070,93.303841 566.890076,93.935913 561.605347,90.357925 
	C560.226685,89.424492 558.813477,88.537247 557.477722,87.545761 
	C536.360962,71.870644 512.529175,65.750618 486.510986,67.471611 
	C476.542175,68.131012 466.556824,68.754364 456.641724,69.925217 
	C451.269775,70.559586 447.621918,68.863937 444.908112,64.444382 
	C442.329285,60.244583 439.714691,56.066738 437.061920,51.792370 
	C392.910706,68.526978 347.191254,73.004807 300.839844,72.962105 
	C254.390778,72.919319 208.532120,68.415726 164.474274,52.598751 
	C161.707993,57.003429 159.243118,60.941708 156.764374,64.871216 
	C154.211884,68.917641 150.795273,70.547623 145.821075,69.940407 
	C137.066452,68.871696 128.246429,68.312637 119.444977,67.658943 
	C101.301079,66.311378 83.339722,67.371788 66.639679,75.145409 
	C57.349636,79.469795 48.771736,85.351700 39.979134,90.706139 
	C35.159828,93.640953 33.065823,93.127411 30.871851,87.868477 
	C30.489468,86.951912 30.099354,86.038574 29.167759,83.833763 
	C27.157660,88.322174 25.034117,91.736275 24.074392,95.451050 
	C20.955530,107.523132 17.656469,119.600723 15.540874,131.868332 
	C11.925423,152.833054 9.154492,173.943436 5.835662,195.634872 
	C5.868496,196.077164 5.901330,196.519455 5.761024,197.805710 
	C5.632928,199.525574 5.504832,201.245422 5.099172,203.730545 
	C4.729012,214.705048 4.171092,225.677063 4.026227,236.654526 
	C3.682562,262.696472 5.372203,288.503754 13.003095,313.651154 
	C20.704498,339.030884 34.028137,360.249634 57.057018,374.454010 
	C72.484962,383.970093 87.695595,388.851868 105.364670,378.155182 
	C127.644165,364.667450 151.346130,353.751099 176.860825,345.093781 
	C178.612000,345.446136 180.431046,345.602142 182.104126,346.180450 
	C205.293900,354.196167 225.782944,349.710144 243.710098,333.051147 
	C245.017761,331.835938 246.540710,330.852386 248.817139,329.927399 
	C262.752258,329.057709 276.685974,327.511597 290.622833,327.482880 
	C309.731537,327.443481 328.842621,328.555328 348.508698,329.527985 
	C349.185303,329.998596 349.954773,330.377228 350.525116,330.953094 
	C369.842621,350.456299 392.208923,355.002258 417.651123,344.751556 
	C418.992157,344.211243 420.532471,344.165680 422.527710,344.406342 
	C438.288788,350.907837 454.217896,357.035889 469.758392,364.027679 
	C482.450348,369.737915 494.511719,376.849884 507.205017,382.556763 
	C511.474823,384.476501 517.172607,385.409821 521.621216,384.332092 
	C535.000977,381.090546 546.932495,374.506744 557.369385,365.379913 
	C576.201660,348.911652 586.212341,327.434784 591.741089,303.667023 
	C599.470459,270.438751 599.136536,236.733063 596.652344,202.097717 
	C596.456787,200.384903 596.261230,198.672104 596.200378,196.303085 
M41.117893,63.587677 
	C31.550198,69.588837 29.146002,80.849777 35.667301,90.000732 
	C39.775940,87.209335 43.854561,84.357849 48.012840,81.627701 
	C62.883663,71.864174 79.058357,65.494156 96.939545,65.004997 
	C109.700615,64.655899 122.730751,64.210854 135.216110,66.321251 
	C149.639801,68.759293 157.670166,63.750668 161.356216,50.457638 
	C158.615036,47.935223 155.734879,44.946808 152.493790,42.421677 
	C150.341782,40.745049 147.803131,39.004425 145.214554,38.542698 
	C132.056702,36.195698 118.817825,35.532234 105.495934,37.494160 
	C82.153343,40.931835 61.412601,50.733120 41.117893,63.587677 
M569.304749,82.622185 
	C570.691345,70.546112 568.455994,67.406364 560.883545,63.548367 
	C558.670654,62.420971 556.666931,60.890240 554.525757,59.614155 
	C529.520447,44.711964 503.091553,34.720013 473.357574,36.575237 
	C462.453125,37.255611 451.151245,37.155521 443.883820,47.743202 
	C443.046326,48.963337 441.352478,49.595661 439.865875,50.632946 
	C442.562042,54.989460 445.063538,59.101887 447.638000,63.168121 
	C449.584320,66.242233 452.193420,67.410828 456.026154,66.970634 
	C464.943542,65.946487 473.908905,65.308762 482.865570,64.663971 
	C503.067688,63.209633 522.816101,65.115196 541.118103,74.447197 
	C549.943787,78.947342 558.203247,84.558159 567.247498,89.983017 
	C567.898376,87.798203 568.546509,85.622742 569.304749,82.622185 
M146.864853,35.827030 
	C148.092667,35.938583 149.320496,36.050140 150.852005,36.189289 
	C151.290848,30.364223 151.922638,24.921932 152.065308,19.466848 
	C152.355820,8.359838 149.572495,5.015320 138.142822,4.289541 
	C133.161652,3.973238 128.024857,5.367166 123.034302,6.363005 
	C121.411102,6.686904 119.329056,7.867360 118.649704,9.244479 
	C114.729645,17.190798 111.166954,25.313412 107.749207,32.794086 
	C120.953835,33.777397 133.465164,34.709076 146.864853,35.827030 
M474.204376,33.660671 
	C480.732574,33.660671 487.260773,33.660671 494.633820,33.660671 
	C490.890747,25.399025 487.470245,17.670366 483.847809,10.037513 
	C483.271942,8.824054 481.949463,7.691282 480.698608,7.115320 
	C471.168213,2.727042 461.660309,2.722373 452.485168,8.053907 
	C451.227448,8.784755 449.956848,10.795436 449.972137,12.199609 
	C450.059021,20.163517 450.535339,28.123178 450.880829,36.123577 
	C458.787750,35.261185 466.032257,34.471039 474.204376,33.660671 
z"/>
<path fill="#FFFFFF" opacity="1.000000" stroke="none" 
	d="
M126.531342,1.000000 
	C116.630913,3.244146 112.390686,11.086142 109.346428,20.133598 
	C108.107811,23.814754 106.710144,27.484591 104.926491,30.921719 
	C104.079948,32.553009 102.305069,34.559269 100.700912,34.812416 
	C75.843681,38.735035 54.382690,50.419296 33.990082,64.248665 
	C31.227058,66.122437 30.521236,71.112480 29.010654,74.721451 
	C27.989740,77.160545 27.751884,80.090141 26.257437,82.139381 
	C20.576992,89.928627 19.281353,99.233070 17.160688,108.129852 
	C13.360250,124.073776 9.970268,140.140381 7.154211,156.285721 
	C5.134511,167.865326 4.302061,179.653687 2.995740,191.355133 
	C2.503726,195.762405 2.168877,200.187195 1.381190,204.802002 
	C1.000000,137.090240 1.000000,69.180481 1.000000,1.000000 
	C42.687172,1.000000 84.374924,1.000000 126.531342,1.000000 
z"/>
<path fill="#FFFFFF" opacity="1.000000" stroke="none" 
	d="
M601.000000,205.531342 
	C600.342163,201.400009 599.405884,196.820175 599.071106,192.196777 
	C596.625305,158.414185 589.471741,125.489151 580.879395,92.849342 
	C579.798462,88.743271 576.864380,85.129326 574.823059,81.269295 
	C574.165100,80.025208 572.997559,78.661179 573.118103,77.457626 
	C573.937256,69.277237 569.572815,64.460091 563.118347,60.548737 
	C547.789124,51.259411 532.190430,42.587910 514.716919,37.928646 
	C510.494324,36.802715 506.092896,36.258850 501.981293,34.844112 
	C500.041473,34.176655 497.940735,32.404205 497.040619,30.576939 
	C494.103912,24.615406 491.362549,18.512018 489.159607,12.247448 
	C486.931305,5.910594 482.328735,3.064810 476.141571,1.343563 
	C517.611389,1.000000 559.222717,1.000000 601.000000,1.000000 
	C601.000000,69.020805 601.000000,137.041748 601.000000,205.531342 
z"/>
<path fill="#FFFFFF" opacity="1.000000" stroke="none" 
	d="
M1.000000,271.468658 
	C1.659519,275.096313 2.481698,279.174133 2.950780,283.292145 
	C5.141406,302.523224 10.070123,320.951813 19.029963,338.176025 
	C31.074356,361.329956 49.090172,377.675995 74.061691,385.985077 
	C75.292976,386.394836 76.502945,386.868622 77.861420,387.656311 
	C52.391338,388.000000 26.782679,388.000000 1.000000,388.000000 
	C1.000000,349.312622 1.000000,310.624969 1.000000,271.468658 
z"/>
<path fill="#FFFFFF" opacity="1.000000" stroke="none" 
	d="
M524.468628,388.000000 
	C529.716248,385.473175 535.498108,383.083954 541.136536,380.393982 
	C559.025452,371.859711 572.009277,358.137787 581.429382,341.021545 
	C591.340881,323.012512 596.897766,303.567657 599.022888,283.135376 
	C599.429993,279.220947 599.834534,275.306274 600.620117,271.195862 
	C601.000000,309.911865 601.000000,348.823700 601.000000,388.000000 
	C575.646362,388.000000 550.291870,388.000000 524.468628,388.000000 
z"/>
<path fill="#D6D6D6" opacity="1.000000" stroke="none" 
	d="
M347.952667,329.173828 
	C328.842621,328.555328 309.731537,327.443481 290.622833,327.482880 
	C276.685974,327.511597 262.752258,329.057709 248.441956,329.505798 
	C256.896942,315.938507 262.077118,301.908752 260.095581,285.636444 
	C258.411987,271.810883 252.632095,260.018311 242.771881,250.663727 
	C230.846603,239.350021 216.372925,233.962097 199.588776,234.908569 
	C185.897568,235.680618 173.898621,240.401718 164.045074,249.625473 
	C148.518509,264.159668 142.212296,282.263580 146.145370,303.321289 
	C148.659683,316.783020 155.195541,328.155029 166.137054,336.773041 
	C169.556274,339.466156 172.763428,342.428528 176.067673,345.267670 
	C151.346130,353.751099 127.644165,364.667450 105.364670,378.155182 
	C87.695595,388.851868 72.484962,383.970093 57.057018,374.454010 
	C34.028137,360.249634 20.704498,339.030884 13.003095,313.651154 
	C5.372203,288.503754 3.682562,262.696472 4.026227,236.654526 
	C4.171092,225.677063 4.729012,214.705048 5.611455,203.200256 
	C6.060547,200.767212 5.997355,198.864487 5.934164,196.961746 
	C5.901330,196.519455 5.868496,196.077164 6.318510,195.235260 
	C7.240860,192.668106 7.684458,190.501389 8.119229,188.332886 
	C12.409680,166.933548 16.658400,145.525742 21.012383,124.139359 
	C22.333994,117.647720 24.041220,111.333832 29.171860,106.486938 
	C43.892933,92.580009 61.721214,84.904991 81.229416,81.079941 
	C92.229187,78.923164 103.467186,77.917892 114.628281,76.664742 
	C126.442543,75.338242 138.211258,75.862259 149.227905,80.719856 
	C160.008469,85.473351 170.441422,91.008614 181.107590,96.029396 
	C213.284821,111.175865 247.616043,117.288620 282.753113,118.823875 
	C309.280487,119.982948 335.770569,118.767006 362.095337,114.161682 
	C392.000702,108.929962 420.205017,99.388802 446.562927,84.301262 
	C454.221954,79.917160 462.040588,76.071671 471.452789,76.919502 
	C485.958923,78.226166 500.611053,78.283516 515.017090,80.232208 
	C531.510254,82.463226 547.544739,87.097305 562.058716,95.633911 
	C569.928162,100.262421 576.736572,106.282242 578.748474,115.771027 
	C583.652405,138.900253 588.270569,162.089951 593.097900,185.235672 
	C593.787842,188.543884 595.000427,191.743088 595.971191,194.992722 
	C596.047607,195.429504 596.123962,195.866302 595.833374,196.884216 
	C595.852295,199.297852 596.238159,201.130325 596.624023,202.962799 
	C599.136536,236.733063 599.470459,270.438751 591.741089,303.667023 
	C586.212341,327.434784 576.201660,348.911652 557.369385,365.379913 
	C546.932495,374.506744 535.000977,381.090546 521.621216,384.332092 
	C517.172607,385.409821 511.474823,384.476501 507.205017,382.556763 
	C494.511719,376.849884 482.450348,369.737915 469.758392,364.027679 
	C454.217896,357.035889 438.288788,350.907837 422.308990,343.815857 
	C423.339813,342.176819 424.523132,341.034943 425.848877,340.093689 
	C444.550507,326.815918 453.266541,308.360291 450.731049,285.943207 
	C446.940277,252.428146 416.668701,229.536972 382.258789,235.907913 
	C348.638458,242.132675 327.448029,277.816681 338.702301,310.156219 
	C341.003143,316.767761 344.829498,322.848450 347.952667,329.173828 
M444.036682,160.043137 
	C430.072815,171.268280 430.616608,190.998428 445.479706,200.559952 
	C454.116486,205.325714 462.701355,206.004700 471.881683,200.093445 
	C486.512329,189.374603 486.674408,169.745850 471.800171,159.333054 
	C462.648621,153.919342 453.592773,153.500748 444.036682,160.043137 
M498.152191,114.929070 
	C487.997345,122.455505 484.570435,134.067474 489.346283,144.767670 
	C494.100586,155.419464 505.093628,161.160278 516.654114,159.028458 
	C526.150696,157.277252 534.111511,149.295258 535.882874,139.748459 
	C537.723022,129.831024 533.373230,119.800056 524.736145,114.357613 
	C516.010925,109.394867 507.361389,108.798737 498.152191,114.929070 
M74.200676,235.424423 
	C83.964203,240.436127 94.064262,241.530243 104.652000,238.340530 
	C124.501266,232.360672 137.204758,211.269287 132.479614,191.949158 
	C127.140526,170.118744 107.242210,156.515366 86.152504,160.277847 
	C69.484367,163.251511 56.099102,176.896912 53.293324,193.775620 
	C50.580734,210.093704 58.650330,226.513840 74.200676,235.424423 
M332.929138,212.377075 
	C339.425537,204.033539 342.417206,194.744904 341.074402,184.080215 
	C339.219299,169.347412 331.283905,158.973831 317.815826,153.612335 
	C303.532959,147.926483 289.907867,150.316605 278.486206,160.939560 
	C267.622192,171.043823 263.738190,183.682251 267.649048,198.102676 
	C271.663452,212.905029 281.605530,222.125717 296.537781,225.241913 
	C310.723816,228.202377 322.730103,223.572937 332.929138,212.377075 
M529.763916,210.758133 
	C528.641541,209.771500 527.574524,208.711960 526.387756,207.810013 
	C518.542908,201.847839 507.959930,201.346329 499.194092,206.479691 
	C491.313354,211.094742 486.290619,220.984085 487.415375,229.670883 
	C488.882507,241.001724 496.094025,248.979401 507.070770,251.414490 
	C516.572083,253.522293 527.209595,248.971848 532.511780,240.531494 
	C538.225891,231.435440 537.350830,220.404144 529.763916,210.758133 
M564.198364,203.009506 
	C577.998291,197.463562 584.378418,184.287811 579.542847,171.321274 
	C574.947083,158.997803 561.635193,152.533325 549.137817,156.556091 
	C536.390991,160.659180 529.306824,173.987747 533.114380,186.703293 
	C537.019104,199.743301 549.844116,206.731018 564.198364,203.009506 
M377.363281,181.017914 
	C373.916687,181.337326 370.389191,181.298843 367.041534,182.055756 
	C361.289337,183.356323 358.860260,187.394547 358.962555,194.444260 
	C359.047577,200.305191 361.636383,204.205078 367.368469,204.914032 
	C373.013123,205.612152 378.940002,205.776016 384.488678,204.770569 
	C387.291992,204.262573 390.555298,201.125839 391.840698,198.356262 
	C396.072906,189.237244 389.665466,181.367661 377.363281,181.017914 
M232.177582,181.019150 
	C229.519989,181.026337 226.846664,180.849915 224.207794,181.075851 
	C216.849243,181.705856 212.225342,185.780304 211.978928,191.626831 
	C211.612259,200.325882 214.606247,204.598679 222.974594,205.677963 
	C227.483734,206.259537 232.198761,205.639313 236.779343,205.162262 
	C241.416229,204.679352 244.021408,201.498352 245.361343,197.277740 
	C248.024887,188.887863 243.370880,182.781296 232.177582,181.019150 
z"/>
<path fill="#EBEBEB" opacity="1.000000" stroke="none" 
	d="
M596.005859,194.563782 
	C595.000427,191.743088 593.787842,188.543884 593.097900,185.235672 
	C588.270569,162.089951 583.652405,138.900253 578.748474,115.771027 
	C576.736572,106.282242 569.928162,100.262421 562.058716,95.633911 
	C547.544739,87.097305 531.510254,82.463226 515.017090,80.232208 
	C500.611053,78.283516 485.958923,78.226166 471.452789,76.919502 
	C462.040588,76.071671 454.221954,79.917160 446.562927,84.301262 
	C420.205017,99.388802 392.000702,108.929962 362.095337,114.161682 
	C335.770569,118.767006 309.280487,119.982948 282.753113,118.823875 
	C247.616043,117.288620 213.284821,111.175865 181.107590,96.029396 
	C170.441422,91.008614 160.008469,85.473351 149.227905,80.719856 
	C138.211258,75.862259 126.442543,75.338242 114.628281,76.664742 
	C103.467186,77.917892 92.229187,78.923164 81.229416,81.079941 
	C61.721214,84.904991 43.892933,92.580009 29.171860,106.486938 
	C24.041220,111.333832 22.333994,117.647720 21.012383,124.139359 
	C16.658400,145.525742 12.409680,166.933548 8.119229,188.332886 
	C7.684458,190.501389 7.240860,192.668106 6.415110,194.914154 
	C9.154492,173.943436 11.925423,152.833054 15.540874,131.868332 
	C17.656469,119.600723 20.955530,107.523132 24.074392,95.451050 
	C25.034117,91.736275 27.157660,88.322174 29.167759,83.833763 
	C30.099354,86.038574 30.489468,86.951912 30.871851,87.868477 
	C33.065823,93.127411 35.159828,93.640953 39.979134,90.706139 
	C48.771736,85.351700 57.349636,79.469795 66.639679,75.145409 
	C83.339722,67.371788 101.301079,66.311378 119.444977,67.658943 
	C128.246429,68.312637 137.066452,68.871696 145.821075,69.940407 
	C150.795273,70.547623 154.211884,68.917641 156.764374,64.871216 
	C159.243118,60.941708 161.707993,57.003429 164.474274,52.598751 
	C208.532120,68.415726 254.390778,72.919319 300.839844,72.962105 
	C347.191254,73.004807 392.910706,68.526978 437.061920,51.792370 
	C439.714691,56.066738 442.329285,60.244583 444.908112,64.444382 
	C447.621918,68.863937 451.269775,70.559586 456.641724,69.925217 
	C466.556824,68.754364 476.542175,68.131012 486.510986,67.471611 
	C512.529175,65.750618 536.360962,71.870644 557.477722,87.545761 
	C558.813477,88.537247 560.226685,89.424492 561.605347,90.357925 
	C566.890076,93.935913 568.984070,93.303841 571.290771,87.435776 
	C571.654663,86.510078 572.017456,85.583946 572.739868,83.742508 
	C574.490601,87.464897 576.427917,90.434944 577.335876,93.691971 
	C586.514893,126.617950 592.808411,160.094742 596.005859,194.563782 
z"/>
<path fill="#EBEBEB" opacity="1.000000" stroke="none" 
	d="
M348.230682,329.350891 
	C344.829498,322.848450 341.003143,316.767761 338.702301,310.156219 
	C327.448029,277.816681 348.638458,242.132675 382.258789,235.907913 
	C416.668701,229.536972 446.940277,252.428146 450.731049,285.943207 
	C453.266541,308.360291 444.550507,326.815918 425.848877,340.093689 
	C424.523132,341.034943 423.339813,342.176819 422.035156,343.557617 
	C420.532471,344.165680 418.992157,344.211243 417.651123,344.751556 
	C392.208923,355.002258 369.842621,350.456299 350.525116,330.953094 
	C349.954773,330.377228 349.185303,329.998596 348.230682,329.350891 
M356.916718,309.411377 
	C364.595215,324.721832 377.315369,332.978394 394.118011,332.603943 
	C420.720856,332.011078 436.586090,308.507385 433.233887,286.147705 
	C430.139679,265.508789 409.234985,249.473785 388.608368,252.304703 
	C361.738861,255.992432 345.593475,283.834045 356.916718,309.411377 
z"/>
<path fill="#EAEAEA" opacity="1.000000" stroke="none" 
	d="
M176.464249,345.180725 
	C172.763428,342.428528 169.556274,339.466156 166.137054,336.773041 
	C155.195541,328.155029 148.659683,316.783020 146.145370,303.321289 
	C142.212296,282.263580 148.518509,264.159668 164.045074,249.625473 
	C173.898621,240.401718 185.897568,235.680618 199.588776,234.908569 
	C216.372925,233.962097 230.846603,239.350021 242.771881,250.663727 
	C252.632095,260.018311 258.411987,271.810883 260.095581,285.636444 
	C262.077118,301.908752 256.896942,315.938507 248.015167,329.422668 
	C246.540710,330.852386 245.017761,331.835938 243.710098,333.051147 
	C225.782944,349.710144 205.293900,354.196167 182.104126,346.180450 
	C180.431046,345.602142 178.612000,345.446136 176.464249,345.180725 
M246.073441,277.253967 
	C244.723038,274.236969 243.741348,270.978912 241.955093,268.246857 
	C235.897415,258.981720 228.224075,251.651413 216.294632,248.740173 
	C206.824356,245.060547 197.423431,245.247360 187.364853,249.118164 
	C184.367249,250.513031 181.131805,251.552231 178.415955,253.368408 
	C169.716446,259.186096 162.545380,266.326904 159.501968,277.543671 
	C155.996841,286.968964 155.406219,296.423706 159.141586,306.663483 
	C164.395706,321.227936 173.690491,331.648041 189.761444,336.154053 
	C198.864014,339.509033 207.915009,339.464508 217.636292,335.849548 
	C223.535522,332.262512 230.021088,329.353607 235.171448,324.900452 
	C240.474411,320.315369 244.834427,314.433929 246.313202,306.325317 
	C249.956696,296.842316 250.241806,287.399017 246.073441,277.253967 
z"/>
<path fill="#FDFDFD" opacity="1.000000" stroke="none" 
	d="
M41.417389,63.382069 
	C61.412601,50.733120 82.153343,40.931835 105.495934,37.494160 
	C118.817825,35.532234 132.056702,36.195698 145.214554,38.542698 
	C147.803131,39.004425 150.341782,40.745049 152.493790,42.421677 
	C155.734879,44.946808 158.615036,47.935223 161.356216,50.457638 
	C157.670166,63.750668 149.639801,68.759293 135.216110,66.321251 
	C122.730751,64.210854 109.700615,64.655899 96.939545,65.004997 
	C79.058357,65.494156 62.883663,71.864174 48.012840,81.627701 
	C43.854561,84.357849 39.775940,87.209335 35.667301,90.000732 
	C29.146002,80.849777 31.550198,69.588837 41.417389,63.382069 
z"/>
<path fill="#FDFDFD" opacity="1.000000" stroke="none" 
	d="
M569.249695,83.034729 
	C568.546509,85.622742 567.898376,87.798203 567.247498,89.983017 
	C558.203247,84.558159 549.943787,78.947342 541.118103,74.447197 
	C522.816101,65.115196 503.067688,63.209633 482.865570,64.663971 
	C473.908905,65.308762 464.943542,65.946487 456.026154,66.970634 
	C452.193420,67.410828 449.584320,66.242233 447.638000,63.168121 
	C445.063538,59.101887 442.562042,54.989460 439.865875,50.632946 
	C441.352478,49.595661 443.046326,48.963337 443.883820,47.743202 
	C451.151245,37.155521 462.453125,37.255611 473.357574,36.575237 
	C503.091553,34.720013 529.520447,44.711964 554.525757,59.614155 
	C556.666931,60.890240 558.670654,62.420971 560.883545,63.548367 
	C568.455994,67.406364 570.691345,70.546112 569.249695,83.034729 
z"/>
<path fill="#FCFCFC" opacity="1.000000" stroke="none" 
	d="
M146.420670,35.733894 
	C133.465164,34.709076 120.953835,33.777397 107.749207,32.794086 
	C111.166954,25.313412 114.729645,17.190798 118.649704,9.244479 
	C119.329056,7.867360 121.411102,6.686904 123.034302,6.363005 
	C128.024857,5.367166 133.161652,3.973238 138.142822,4.289541 
	C149.572495,5.015320 152.355820,8.359838 152.065308,19.466848 
	C151.922638,24.921932 151.290848,30.364223 150.852005,36.189289 
	C149.320496,36.050140 148.092667,35.938583 146.420670,35.733894 
z"/>
<path fill="#FCFCFC" opacity="1.000000" stroke="none" 
	d="
M473.740570,33.670784 
	C466.032257,34.471039 458.787750,35.261185 450.880829,36.123577 
	C450.535339,28.123178 450.059021,20.163517 449.972137,12.199609 
	C449.956848,10.795436 451.227448,8.784755 452.485168,8.053907 
	C461.660309,2.722373 471.168213,2.727042 480.698608,7.115320 
	C481.949463,7.691282 483.271942,8.824054 483.847809,10.037513 
	C487.470245,17.670366 490.890747,25.399025 494.633820,33.660671 
	C487.260773,33.660671 480.732574,33.660671 473.740570,33.670784 
z"/>
<path fill="#EBEBEB" opacity="1.000000" stroke="none" 
	d="
M596.638184,202.530258 
	C596.238159,201.130325 595.852295,199.297852 595.765991,197.212341 
	C596.261230,198.672104 596.456787,200.384903 596.638184,202.530258 
z"/>
<path fill="#EBEBEB" opacity="1.000000" stroke="none" 
	d="
M5.847594,197.383728 
	C5.997355,198.864487 6.060547,200.767212 5.750237,202.817627 
	C5.504832,201.245422 5.632928,199.525574 5.847594,197.383728 
z"/>
<path fill="#7D7D7D" opacity="1.000000" stroke="none" 
	d="
M73.884369,235.227692 
	C58.650330,226.513840 50.580734,210.093704 53.293324,193.775620 
	C56.099102,176.896912 69.484367,163.251511 86.152504,160.277847 
	C107.242210,156.515366 127.140526,170.118744 132.479614,191.949158 
	C137.204758,211.269287 124.501266,232.360672 104.652000,238.340530 
	C94.064262,241.530243 83.964203,240.436127 73.884369,235.227692 
M90.323997,231.496658 
	C91.607605,232.399780 92.891220,233.302917 94.174828,234.206070 
	C94.563560,232.828812 94.952293,231.451538 95.341026,230.074265 
	C93.763107,230.329559 92.185188,230.584854 90.323997,231.496658 
M94.789383,170.451477 
	C97.038269,168.136871 95.619064,166.469269 93.504196,165.612396 
	C92.837288,165.342194 91.398346,166.977463 90.312737,167.740631 
	C91.587318,168.760452 92.861900,169.780273 94.789383,170.451477 
z"/>
<path fill="#577D44" opacity="1.000000" stroke="none" 
	d="
M332.692596,212.645142 
	C322.730103,223.572937 310.723816,228.202377 296.537781,225.241913 
	C281.605530,222.125717 271.663452,212.905029 267.649048,198.102676 
	C263.738190,183.682251 267.622192,171.043823 278.486206,160.939560 
	C289.907867,150.316605 303.532959,147.926483 317.815826,153.612335 
	C331.283905,158.973831 339.219299,169.347412 341.074402,184.080215 
	C342.417206,194.744904 339.425537,204.033539 332.692596,212.645142 
M322.150848,160.891022 
	C317.382446,163.857605 312.422302,166.563416 307.911774,169.880600 
	C304.797668,172.170776 302.507904,172.004318 299.529755,169.811722 
	C294.806488,166.334335 289.802002,163.238998 284.916473,159.982025 
	C287.564789,166.329285 290.826752,172.010681 294.696503,177.242508 
	C297.558380,181.111740 297.736847,183.925018 294.811188,188.092041 
	C289.700836,195.370682 285.530823,203.309555 280.621002,211.067398 
	C280.754791,211.053955 280.888550,211.040512 281.653931,210.787552 
	C289.044861,204.443436 296.435791,198.099319 303.961121,191.639832 
	C311.612976,198.318100 318.847046,204.631729 326.081116,210.945374 
	C326.389679,210.660995 326.698242,210.376617 327.006805,210.092239 
	C326.196442,208.729248 325.424255,207.341797 324.569214,206.007431 
	C320.354340,199.430038 316.214478,192.801132 311.840027,186.331100 
	C310.123932,183.792938 309.939728,181.906342 311.786896,179.211212 
	C315.809418,173.342072 319.359467,167.149124 323.419098,160.909500 
	C323.237671,160.893341 323.056274,160.877182 322.150848,160.891022 
z"/>
<path fill="#33A122" opacity="1.000000" stroke="none" 
	d="
M529.979858,211.046799 
	C537.350830,220.404144 538.225891,231.435440 532.511780,240.531494 
	C527.209595,248.971848 516.572083,253.522293 507.070770,251.414490 
	C496.094025,248.979401 488.882507,241.001724 487.415375,229.670883 
	C486.290619,220.984085 491.313354,211.094742 499.194092,206.479691 
	C507.959930,201.346329 518.542908,201.847839 526.387756,207.810013 
	C527.574524,208.711960 528.641541,209.771500 529.979858,211.046799 
M517.951721,218.585541 
	C517.073425,215.223297 516.367004,211.800644 515.218689,208.533310 
	C514.843384,207.465408 513.297852,206.097336 512.323608,206.125259 
	C511.003204,206.163147 508.821503,207.173386 508.553162,208.178680 
	C505.244659,220.572113 502.217804,233.040710 499.066132,245.699127 
	C502.257904,245.699127 504.822235,245.699127 507.506409,245.699127 
	C508.030457,242.296661 508.295959,239.157364 509.084961,236.155685 
	C509.395172,234.975418 510.875702,234.102768 511.823334,233.090057 
	C512.848083,234.118469 514.463989,234.991867 514.782288,236.205566 
	C515.602173,239.332230 515.847717,242.609512 516.307251,245.721893 
	C519.127930,245.721893 521.383423,245.721893 524.594421,245.721893 
	C522.331665,236.605591 520.197083,228.005676 517.951721,218.585541 
z"/>
<path fill="#F2C816" opacity="1.000000" stroke="none" 
	d="
M525.128967,114.948975 
	C533.373230,119.800056 537.723022,129.831024 535.882874,139.748459 
	C534.111511,149.295258 526.150696,157.277252 516.654114,159.028458 
	C505.093628,161.160278 494.100586,155.419464 489.346283,144.767670 
	C484.570435,134.067474 487.997345,122.455505 498.527832,114.910461 
	C498.903473,114.891846 498.968292,114.981354 499.102356,115.317825 
	C504.052521,126.069855 508.521027,136.437988 507.233978,148.493851 
	C506.465240,155.694565 508.185486,156.483963 516.028015,154.035950 
	C516.028015,152.185181 516.138489,150.202057 516.008728,148.234756 
	C515.476440,140.163162 516.287231,132.426605 520.317566,125.141060 
	C522.057556,121.995758 522.931335,118.371284 524.431396,114.969543 
	C524.664124,114.974617 525.128967,114.948975 525.128967,114.948975 
z"/>
<path fill="#E5380F" opacity="1.000000" stroke="none" 
	d="
M563.795410,203.104904 
	C549.844116,206.731018 537.019104,199.743301 533.114380,186.703293 
	C529.306824,173.987747 536.390991,160.659180 549.137817,156.556091 
	C561.635193,152.533325 574.947083,158.997803 579.542847,171.321274 
	C584.378418,184.287811 577.998291,197.463562 563.795410,203.104904 
M566.834595,162.601700 
	C561.007690,158.301529 554.597412,160.154724 547.984253,160.143997 
	C547.984253,167.324265 547.984253,173.806702 547.984253,180.289139 
	C547.984253,186.717346 547.984253,193.145538 547.984253,199.992859 
	C551.197632,199.992859 553.665588,199.978561 556.133362,199.995804 
	C561.571533,200.033813 566.607788,198.964478 569.135681,193.517700 
	C571.454834,188.520691 569.628052,184.151291 566.133423,180.299667 
	C565.958557,180.106979 566.054077,179.669098 565.997314,179.063782 
	C570.875305,174.314407 571.582214,168.938034 566.834595,162.601700 
z"/>
<path fill="#F6F6F6" opacity="1.000000" stroke="none" 
	d="
M377.819763,181.018005 
	C389.665466,181.367661 396.072906,189.237244 391.840698,198.356262 
	C390.555298,201.125839 387.291992,204.262573 384.488678,204.770569 
	C378.940002,205.776016 373.013123,205.612152 367.368469,204.914032 
	C361.636383,204.205078 359.047577,200.305191 358.962555,194.444260 
	C358.860260,187.394547 361.289337,183.356323 367.041534,182.055756 
	C370.389191,181.298843 373.916687,181.337326 377.819763,181.018005 
M374.925476,199.449310 
	C377.475464,197.795731 380.025482,196.142151 383.241241,194.056870 
	C379.297699,191.750214 376.112335,189.887039 371.985779,187.473328 
	C371.985779,191.972778 371.914307,195.404556 372.087769,198.823898 
	C372.106720,199.197250 373.535858,199.499100 374.925476,199.449310 
z"/>
<path fill="#F6F6F6" opacity="1.000000" stroke="none" 
	d="
M232.623276,181.020752 
	C243.370880,182.781296 248.024887,188.887863 245.361343,197.277740 
	C244.021408,201.498352 241.416229,204.679352 236.779343,205.162262 
	C232.198761,205.639313 227.483734,206.259537 222.974594,205.677963 
	C214.606247,204.598679 211.612259,200.325882 211.978928,191.626831 
	C212.225342,185.780304 216.849243,181.705856 224.207794,181.075851 
	C226.846664,180.849915 229.519989,181.026337 232.623276,181.020752 
M226.392792,197.205109 
	C228.345703,198.348083 230.298615,199.491058 232.475769,200.765274 
	C232.475769,196.207489 232.475769,192.269409 232.475769,187.546982 
	C228.581772,189.993958 225.437225,191.969986 221.953979,194.158844 
	C223.615173,195.347656 224.691925,196.118210 226.392792,197.205109 
z"/>
<path fill="#043FBF" opacity="1.000000" stroke="none" 
	d="
M472.213562,159.904831 
	C486.674408,169.745850 486.512329,189.374603 471.501404,200.107956 
	C471.121094,200.122467 471.030212,200.021317 470.992126,199.655777 
	C469.813751,196.553558 469.055725,193.567291 467.462128,191.126602 
	C462.512177,183.545456 462.746857,176.191650 467.306885,168.567841 
	C468.900757,165.903152 469.853119,162.854767 471.377991,159.973602 
	C471.842865,159.945343 472.028229,159.925079 472.213562,159.904831 
z"/>
<path fill="#033EBF" opacity="1.000000" stroke="none" 
	d="
M445.136688,199.955383 
	C430.616608,190.998428 430.072815,171.268280 444.644897,159.994537 
	C445.450470,159.954636 445.647858,159.963303 445.924500,160.338379 
	C447.008881,163.145859 447.685669,165.795197 449.078186,167.990555 
	C454.049347,175.827820 454.184570,183.479553 449.263794,191.409683 
	C447.629303,194.043777 446.736938,197.138397 445.414032,200.000870 
	C445.322754,199.979248 445.136688,199.955383 445.136688,199.955383 
z"/>
<path fill="#0F47C1" opacity="1.000000" stroke="none" 
	d="
M445.845215,159.971985 
	C445.647858,159.963303 445.450470,159.954636 444.959900,159.899475 
	C453.592773,153.500748 462.648621,153.919342 472.006866,159.618942 
	C472.028229,159.925079 471.842865,159.945343 470.930328,159.951508 
	C462.760193,157.899719 460.776886,163.511383 458.335968,169.095856 
	C456.276825,162.479691 453.188416,158.093918 445.845215,159.971985 
z"/>
<path fill="#F2C91A" opacity="1.000000" stroke="none" 
	d="
M524.932556,114.653290 
	C525.128967,114.948975 524.664124,114.974617 523.972168,114.977234 
	C515.982422,113.016899 514.433899,119.001053 511.840210,124.249840 
	C510.776672,122.249039 509.784393,121.067093 509.509338,119.736855 
	C508.676361,115.708443 506.315155,114.342010 502.418518,114.960693 
	C501.295654,115.138977 500.119843,114.983704 498.968292,114.981354 
	C498.968292,114.981354 498.903473,114.891846 498.864899,114.849289 
	C507.361389,108.798737 516.010925,109.394867 524.932556,114.653290 
z"/>
<path fill="#0943BF" opacity="1.000000" stroke="none" 
	d="
M445.308197,200.257660 
	C445.136688,199.955383 445.322754,199.979248 445.904663,199.990295 
	C454.632599,202.331924 455.664673,195.367249 458.750671,189.668839 
	C460.556030,196.760574 463.179901,201.931107 471.030212,200.021317 
	C471.030212,200.021317 471.121094,200.122467 471.162720,200.177887 
	C462.701355,206.004700 454.116486,205.325714 445.308197,200.257660 
z"/>
<path fill="#7D7D7D" opacity="1.000000" stroke="none" 
	d="
M356.729431,309.080994 
	C345.593475,283.834045 361.738861,255.992432 388.608368,252.304703 
	C409.234985,249.473785 430.139679,265.508789 433.233887,286.147705 
	C436.586090,308.507385 420.720856,332.011078 394.118011,332.603943 
	C377.315369,332.978394 364.595215,324.721832 356.729431,309.080994 
z"/>
<path fill="#555555" opacity="1.000000" stroke="none" 
	d="
M188.090881,249.246109 
	C197.423431,245.247360 206.824356,245.060547 216.674988,249.291931 
	C218.051819,254.091965 219.567017,258.295868 219.935226,262.597931 
	C220.670151,271.184998 224.154114,274.549774 232.686172,275.113586 
	C237.161179,275.409302 241.550476,277.002319 245.978470,278.009491 
	C250.241806,287.399017 249.956696,296.842316 245.737976,306.678802 
	C240.380493,308.023224 235.638779,309.413025 230.805710,309.904449 
	C224.725082,310.522736 222.192047,312.191864 220.821808,318.126038 
	C219.468552,323.986694 218.210220,329.869263 216.910217,335.742218 
	C207.915009,339.464508 198.864014,339.509033 189.349548,335.641235 
	C187.627350,329.943115 185.868454,324.821075 185.125732,319.555756 
	C184.287979,313.616699 181.247925,309.886475 175.203812,310.102295 
	C169.346512,310.311401 164.090240,309.058563 159.215118,305.922943 
	C155.406219,296.423706 155.996841,286.968964 160.154556,277.295441 
	C165.327667,276.352936 169.830353,275.492432 174.373077,275.005280 
	C180.422226,274.356628 184.202744,271.625916 184.961670,267.081512 
	C185.955872,261.128235 187.043457,255.190521 188.090881,249.246109 
z"/>
<path fill="#7E7E7E" opacity="1.000000" stroke="none" 
	d="
M159.178345,306.293213 
	C164.090240,309.058563 169.346512,310.311401 175.203812,310.102295 
	C181.247925,309.886475 184.287979,313.616699 185.125732,319.555756 
	C185.868454,324.821075 187.627350,329.943115 188.999847,335.481934 
	C173.690491,331.648041 164.395706,321.227936 159.178345,306.293213 
z"/>
<path fill="#7E7E7E" opacity="1.000000" stroke="none" 
	d="
M246.025955,277.631714 
	C241.550476,277.002319 237.161179,275.409302 232.686172,275.113586 
	C224.154114,274.549774 220.670151,271.184998 219.935226,262.597931 
	C219.567017,258.295868 218.051819,254.091965 217.003723,249.482239 
	C228.224075,251.651413 235.897415,258.981720 241.955093,268.246857 
	C243.741348,270.978912 244.723038,274.236969 246.025955,277.631714 
z"/>
<path fill="#7E7E7E" opacity="1.000000" stroke="none" 
	d="
M217.273254,335.795898 
	C218.210220,329.869263 219.468552,323.986694 220.821808,318.126038 
	C222.192047,312.191864 224.725082,310.522736 230.805710,309.904449 
	C235.638779,309.413025 240.380493,308.023224 245.530579,306.995483 
	C244.834427,314.433929 240.474411,320.315369 235.171448,324.900452 
	C230.021088,329.353607 223.535522,332.262512 217.273254,335.795898 
z"/>
<path fill="#7E7E7E" opacity="1.000000" stroke="none" 
	d="
M187.727875,249.182129 
	C187.043457,255.190521 185.955872,261.128235 184.961670,267.081512 
	C184.202744,271.625916 180.422226,274.356628 174.373077,275.005280 
	C169.830353,275.492432 165.327667,276.352936 160.406158,277.025085 
	C162.545380,266.326904 169.716446,259.186096 178.415955,253.368408 
	C181.131805,251.552231 184.367249,250.513031 187.727875,249.182129 
z"/>
<path fill="#595959" opacity="1.000000" stroke="none" 
	d="
M90.465637,231.168396 
	C92.185188,230.584854 93.763107,230.329559 95.341026,230.074280 
	C94.952293,231.451538 94.563560,232.828812 94.174835,234.206055 
	C92.891220,233.302917 91.607605,232.399780 90.465637,231.168396 
z"/>
<path fill="#595959" opacity="1.000000" stroke="none" 
	d="
M94.462936,170.625793 
	C92.861900,169.780273 91.587318,168.760452 90.312744,167.740631 
	C91.398346,166.977463 92.837288,165.342194 93.504196,165.612396 
	C95.619064,166.469269 97.038269,168.136871 94.462936,170.625793 
z"/>
<path fill="#40BD02" opacity="1.000000" stroke="none" 
	d="
M280.966766,210.971741 
	C285.530823,203.309555 289.700836,195.370682 294.811188,188.092041 
	C297.736847,183.925018 297.558380,181.111740 294.696503,177.242508 
	C290.826752,172.010681 287.564789,166.329285 284.916473,159.982025 
	C289.802002,163.238998 294.806488,166.334335 299.529755,169.811722 
	C302.507904,172.004318 304.797668,172.170776 307.911774,169.880600 
	C312.422302,166.563416 317.382446,163.857605 322.568024,160.934662 
	C322.985199,160.978302 323.102600,161.088516 323.102600,161.088516 
	C319.359467,167.149124 315.809418,173.342072 311.786896,179.211212 
	C309.939728,181.906342 310.123932,183.792938 311.840027,186.331100 
	C316.214478,192.801132 320.354340,199.430038 324.569214,206.007431 
	C325.424255,207.341797 326.196442,208.729248 327.006805,210.092239 
	C326.698242,210.376617 326.389679,210.660995 326.081116,210.945374 
	C318.847046,204.631729 311.612976,198.318100 303.961121,191.639832 
	C296.435791,198.099319 289.044861,204.443436 281.325287,210.892548 
	C280.996643,210.997543 280.966766,210.971741 280.966766,210.971741 
z"/>
<path fill="#40BD02" opacity="1.000000" stroke="none" 
	d="
M281.009491,211.012299 
	C280.888550,211.040512 280.754791,211.053955 280.793884,211.019562 
	C280.966766,210.971741 280.996643,210.997543 281.009491,211.012299 
z"/>
<path fill="#40BD02" opacity="1.000000" stroke="none" 
	d="
M322.930023,160.919662 
	C323.056274,160.877182 323.237671,160.893341 323.260864,160.999008 
	C323.102600,161.088516 322.985199,160.978302 322.930023,160.919662 
z"/>
<path fill="#7CC370" opacity="1.000000" stroke="none" 
	d="
M518.007080,218.995667 
	C520.197083,228.005676 522.331665,236.605591 524.594421,245.721893 
	C521.383423,245.721893 519.127930,245.721893 516.307251,245.721893 
	C515.847717,242.609512 515.602173,239.332230 514.782288,236.205566 
	C514.463989,234.991867 512.848083,234.118469 511.823303,233.090057 
	C510.875702,234.102768 509.395172,234.975418 509.084961,236.155685 
	C508.295959,239.157364 508.030457,242.296661 507.506409,245.699127 
	C504.822235,245.699127 502.257904,245.699127 499.066132,245.699127 
	C502.217804,233.040710 505.244659,220.572113 508.553162,208.178680 
	C508.821503,207.173386 511.003204,206.163147 512.323608,206.125259 
	C513.297852,206.097336 514.843384,207.465408 515.218689,208.533310 
	C516.367004,211.800644 517.073425,215.223297 518.007080,218.995667 
z"/>
<path fill="#F7DC6B" opacity="1.000000" stroke="none" 
	d="
M499.102356,115.317825 
	C500.119843,114.983704 501.295654,115.138977 502.418518,114.960693 
	C506.315155,114.342010 508.676361,115.708443 509.509338,119.736855 
	C509.784393,121.067093 510.776672,122.249039 511.840210,124.249840 
	C514.433899,119.001053 515.982422,113.016899 523.739380,114.972168 
	C522.931335,118.371284 522.057556,121.995758 520.317566,125.141060 
	C516.287231,132.426605 515.476440,140.163162 516.008728,148.234756 
	C516.138489,150.202057 516.028015,152.185181 516.028015,154.035950 
	C508.185486,156.483963 506.465240,155.694565 507.233978,148.493851 
	C508.521027,136.437988 504.052521,126.069855 499.102356,115.317825 
z"/>
<path fill="#EF8066" opacity="1.000000" stroke="none" 
	d="
M567.110046,162.876587 
	C571.582214,168.938034 570.875305,174.314407 565.997314,179.063782 
	C566.054077,179.669098 565.958557,180.106979 566.133423,180.299667 
	C569.628052,184.151291 571.454834,188.520691 569.135681,193.517700 
	C566.607788,198.964478 561.571533,200.033813 556.133362,199.995804 
	C553.665588,199.978561 551.197632,199.992859 547.984253,199.992859 
	C547.984253,193.145538 547.984253,186.717346 547.984253,180.289139 
	C547.984253,173.806702 547.984253,167.324265 547.984253,160.143997 
	C554.597412,160.154724 561.007690,158.301529 567.110046,162.876587 
M553.896729,165.404358 
	C553.521057,168.697906 553.145386,171.991455 552.722839,175.695984 
	C555.516541,175.695984 557.342773,175.916519 559.096252,175.652863 
	C563.586121,174.977753 566.220581,169.615204 563.066956,167.131149 
	C561.036194,165.531555 557.562622,165.763809 553.896729,165.404358 
M563.979675,190.258224 
	C563.685669,184.319305 561.422119,183.101639 553.405029,184.682037 
	C553.405029,187.680801 553.405029,190.701401 553.405029,193.992081 
	C557.341064,193.527100 561.540222,195.901245 563.979675,190.258224 
z"/>
<path fill="#D2D2D2" opacity="1.000000" stroke="none" 
	d="
M374.618195,199.641708 
	C373.535858,199.499100 372.106720,199.197250 372.087769,198.823898 
	C371.914307,195.404556 371.985779,191.972778 371.985779,187.473328 
	C376.112335,189.887039 379.297699,191.750214 383.241241,194.056870 
	C380.025482,196.142151 377.475464,197.795731 374.618195,199.641708 
z"/>
<path fill="#D2D2D2" opacity="1.000000" stroke="none" 
	d="
M226.080734,197.046936 
	C224.691925,196.118210 223.615173,195.347656 221.953979,194.158844 
	C225.437225,191.969986 228.581772,189.993958 232.475769,187.546982 
	C232.475769,192.269409 232.475769,196.207489 232.475769,200.765274 
	C230.298615,199.491058 228.345703,198.348083 226.080734,197.046936 
z"/>
<path fill="#6085D6" opacity="1.000000" stroke="none" 
	d="
M470.992126,199.655777 
	C463.179901,201.931107 460.556030,196.760574 458.750671,189.668839 
	C455.664673,195.367249 454.632599,202.331924 445.995911,200.011917 
	C446.736938,197.138397 447.629303,194.043777 449.263794,191.409683 
	C454.184570,183.479553 454.049347,175.827820 449.078186,167.990555 
	C447.685669,165.795197 447.008881,163.145859 445.924500,160.338379 
	C453.188416,158.093918 456.276825,162.479691 458.335968,169.095856 
	C460.776886,163.511383 462.760193,157.899719 470.650818,159.959503 
	C469.853119,162.854767 468.900757,165.903152 467.306885,168.567841 
	C462.746857,176.191650 462.512177,183.545456 467.462128,191.126602 
	C469.055725,193.567291 469.813751,196.553558 470.992126,199.655777 
z"/>
<path fill="#E5370E" opacity="1.000000" stroke="none" 
	d="
M554.316162,165.289703 
	C557.562622,165.763809 561.036194,165.531555 563.066956,167.131149 
	C566.220581,169.615204 563.586121,174.977753 559.096252,175.652863 
	C557.342773,175.916519 555.516541,175.695984 552.722839,175.695984 
	C553.145386,171.991455 553.521057,168.697906 554.316162,165.289703 
z"/>
<path fill="#E5360C" opacity="1.000000" stroke="none" 
	d="
M563.923584,190.676331 
	C561.540222,195.901245 557.341064,193.527100 553.405029,193.992081 
	C553.405029,190.701401 553.405029,187.680801 553.405029,184.682037 
	C561.422119,183.101639 563.685669,184.319305 563.923584,190.676331 
z"/>
</svg>